<?xml version="1.0" encoding="UTF-8"?>
<svg id="Layer_2" data-name="Layer 2" xmlns="http://www.w3.org/2000/svg" viewBox="0 0 213.89 30.28">
  <g id="Layer_2-2" data-name="Layer 2">
    <g>
      <path d="M22.75,30.28c-2.88,0-4.81-1.93-4.81-4.81,0-2.05,1.11-5.36,2.41-9.2,1.1-3.28,2.35-6.98,2.45-8.86-.22.11-.45.27-.65.47-.52.54-1.21.87-1.95.9-.5,2.96-1.94,7.44-3.67,12.82l-1.02,3.18c-.07.23-.12.52-.18.85-.07.41-.15.82-.27,1.27-.43,1.43-1.59,2.32-2.97,2.32-.95,0-1.86-.45-2.43-1.19-.56-.74-.73-1.69-.48-2.62.15-.48.28-.86.42-1.24.12-.33.24-.66.34-1.01.68-2.21,1.35-4.24,1.97-6.11,1.37-4.18,2.57-7.82,2.67-9.63-.22.11-.45.27-.65.47-.56.56-1.27.87-2.02.87-.09,0-.19,0-.28-.01-.03.09-.06.18-.09.27-.14.4-.27.79-.38,1.18l-4.21,14.55c-.08.28-.13.57-.19.9-.07.41-.15.82-.27,1.27-.43,1.43-1.58,2.32-2.96,2.32-.95,0-1.86-.45-2.43-1.19-.56-.74-.73-1.69-.48-2.62.15-.48.28-.86.42-1.24.12-.33.24-.66.34-1.01l4.25-14.55s.25-.88.31-1.08c-.06.11-.45.84-.45.84-.59,1.07-1.58,1.7-2.67,1.7-.98,0-1.91-.53-2.42-1.39-.54-.92-.55-2.06,0-3.05C2.31,1.95,4.76,0,7.49,0c1.95,0,3.53.95,4.35,2.44,1.18-.6,2.53-.92,3.57-.92,1.53,0,2.83.63,3.73,1.68,1.31-.99,3.07-1.68,4.48-1.68,2.89,0,4.99,2.25,4.99,5.35,0,2.4-1.36,6.67-2.8,11.18-.64,2-1.38,4.33-1.78,5.92.57-.43,1.3-1.12,2.17-2.2.66-.83,1.54-1.29,2.46-1.29,1.02,0,1.94.57,2.41,1.49.5.98.39,2.17-.29,3.1-3.22,4.31-6.14,5.21-8.02,5.21Z" style="fill: #998675;"/>
      <path d="M7.49,2c1.69,0,2.95,1.04,2.95,2.88,0,1.66-.76,3.24-1.19,4.75l-4.21,14.54c-.22.72-.25,1.4-.47,2.2-.43,1.44-2.38.86-2.02-.43.25-.83.54-1.48.76-2.23l4.25-14.54c.47-1.66.94-3.17.94-4.39,0-.65-.43-1.08-1.01-1.08-1.98,0-2.92,2.2-3.74,3.71-.76,1.37-2.23.36-1.58-.83.97-1.87,2.81-4.57,5.33-4.57ZM15.12,5.24c-.94,0-1.94.58-2.59,1.22-.83.83-1.87-.36-1.12-1.22.83-1.01,2.7-1.73,4-1.73,2.05,0,2.99,1.66,2.99,3.35,0,2.77-2.3,9.5-4.79,17.31-.22.72-.25,1.4-.47,2.2-.43,1.44-2.38.86-2.02-.43.25-.83.54-1.48.76-2.23,2.38-7.67,4.72-13.68,4.72-16.52,0-1.08-.25-1.94-1.48-1.94ZM21.74,25.54c0,.65.43,1.04,1.01,1.04,1.33,0,3.02-1.12,5-3.56,1.01-1.26,2.09-.07,1.4.86-2.23,2.99-4.46,4.39-6.41,4.39-1.69,0-2.81-.97-2.81-2.81,0-3.56,4.86-14.18,4.86-18.29,0-1.08-.25-1.94-1.48-1.94-.94,0-1.94.58-2.59,1.22-.79.83-1.84-.14-1.08-1.04.83-.97,2.66-1.91,3.96-1.91,2.05,0,2.99,1.66,2.99,3.35,0,3.89-4.86,15.8-4.86,18.68Z" style="fill: #fff;"/>
      <path d="M41.18,30.28c-1.28,0-2.39-.39-3.23-1.06-.16.1-.34.18-.53.25-.71.26-1.35.35-2.47.35h-.03c-3.92-.05-6.65-3.21-6.65-7.69,0-6.07,4.58-12.83,11.14-12.83,1.04,0,2.02.27,2.82.77,1.06.62,1.67,1.68,1.63,2.8.2.16.39.34.54.55.55.73.71,1.66.46,2.57-.13.5-.31.97-.46,1.39-.1.28-.21.55-.29.84l-1.21,4.15c-.16.57-.32,1.12-.45,1.63.54-.4,1.26-1.08,2.16-2.21.67-.84,1.55-1.3,2.47-1.3,1.02,0,1.94.57,2.41,1.49.5.98.39,2.17-.29,3.1-3.22,4.31-6.14,5.21-8.02,5.21ZM38.83,15.1c-2.64.47-4.79,4.05-4.79,7.02,0,.19.03,1.9.96,1.92.28,0,.32-.02.47-.07.32-.13.65-.21.98-.23.17-.88.44-1.69.69-2.45.13-.38.25-.75.36-1.12l1.01-3.47c.09-.3.14-.59.19-.88.04-.22.08-.47.14-.72Z" style="fill: #998675;"/>
      <path d="M34.96,27.81c-2.7-.04-4.68-2.23-4.68-5.69,0-5.04,3.74-10.83,9.14-10.83.54,0,1.19.11,1.76.47,1.55.9.11,2.56-.68,1.76-.29-.32-.79-.47-1.08-.47-4.14,0-7.38,4.86-7.38,9.07,0,2.41,1.22,3.89,2.92,3.92.72,0,.97-.11,1.26-.22,1.33-.54,1.84,1.26.5,1.76-.4.14-.79.22-1.76.22ZM40.43,17.26c.22-.72.25-1.4.47-2.16.4-1.48,2.41-.94,2.05.32-.22.83-.54,1.48-.76,2.23l-1.01,3.46c-.47,1.66-.97,3.2-.97,4.43,0,.65.4,1.04.97,1.04,1.37,0,3.02-1.08,5-3.56,1.01-1.26,2.09-.07,1.4.86-2.23,2.99-4.46,4.39-6.41,4.39-1.69,0-2.92-.97-2.92-2.81,0-1.66.72-3.24,1.15-4.75l1.01-3.46Z" style="fill: #fff;"/>
      <path d="M54.65,30.1c-3.66,0-7.94-2.09-7.94-7.98s4.44-12.83,10.82-12.83c3.18,0,4.84,2.62,4.84,5.2,0,4.5-4.63,7.53-8.99,7.58-.2.04-.46.08-.79.08-.04,0-.08,0-.12,0,0,1.18.27,2.26,2.1,2.26,1.01,0,3.17-.56,4.85-2.64.66-.83,1.54-1.29,2.47-1.29,1.04,0,1.97.58,2.43,1.52.49,1,.35,2.19-.35,3.11-2.79,3.68-6.65,4.99-9.32,4.99ZM56.19,15.36c-.34.16-.67.38-.98.66.39-.16.74-.38.98-.66Z" style="fill: #998675;"/>
      <path d="M52.16,20.11c-1.19-.22-.86-1.84.32-1.84.32,0,.58.11.86.11,2.41,0,5.22-1.33,5.22-3.96,0-.68-.36-1.37-1.12-1.37-3.85,0-6.98,4.86-6.98,9.07,0,3.82,2.81,4.28,4.1,4.28,1.76,0,4.43-.94,6.41-3.38,1.01-1.26,2.12-.07,1.4.86-2.27,2.99-5.47,4.21-7.74,4.21-2.81,0-5.94-1.44-5.94-5.98,0-5.04,3.71-10.83,8.82-10.83,2.38,0,2.84,2.2,2.84,3.2,0,3.42-3.89,5.58-7.09,5.58-.25,0-.5.14-1.12.04Z" style="fill: #fff;"/>
      <path d="M72.68,30.28c-1.18,0-2.12-.28-2.8-.84-.9.42-1.9.66-2.96.66-2.09,0-3.41-.61-4.02-.97-.95-.54-1.49-1.66-1.36-2.8h-.01c-1.08,0-2.05-.57-2.51-1.5-.47-.94-.34-2.06.36-3,3.18-4.35,5.41-8.58,6.79-12.92.09-.29.15-.57.21-.87.08-.36.16-.72.28-1.13.42-1.44,1.59-2.36,2.98-2.36.9,0,1.77.42,2.31,1.13.56.73.73,1.69.48,2.63-.13.6-.39,1.25-.59,1.78-.08.2-.15.38-.2.53-.04.12-.08.24-.11.36.73.48,1.26,1.35,1.26,2.57,0,.6.18,1.06.51,1.89.51,1.26,1.21,2.99,1.21,6.03,0,.62-.05,1.21-.16,1.79.29-.36.62-.81,1.01-1.38.88-1.23,1.93-1.41,2.49-1.41.99,0,1.9.55,2.39,1.45.52.95.46,2.12-.15,3.06-2.24,3.51-4.73,5.3-7.4,5.3ZM64.94,23.82c.23.05.45.13.67.23.29.15.7.35,1.31.35.76,0,1.82-1.05,1.82-2.75,0-1.35-.17-2.28-.42-3.08-1.02,1.88-2.15,3.58-3.38,5.25Z" style="fill: #998675;"/>
      <path d="M68.58,7.47c.43-1.48,2.27-1.01,1.91.32-.18.79-.58,1.66-.76,2.2-1.8,5.79-4.07,9.65-7.34,13.89-.72.94-2.23.25-1.4-.86,2.84-3.89,5.44-8.31,7.09-13.5.22-.72.29-1.3.5-2.05ZM64.76,25.87c.29.14,1.04.54,2.16.54,1.94,0,3.82-1.98,3.82-4.75,0-4.46-1.76-5.44-1.76-8.03,0-1.22,1.8-1.66,1.8-.07,0,2.41,1.73,3.35,1.73,7.92,0,3.53-2.34,6.62-5.58,6.62-1.66,0-2.63-.47-2.99-.68-.83-.47-.32-2.09.83-1.55ZM72.86,26.58c1.33,0,2.45-1.12,4.14-3.56.9-1.26,2.02-.07,1.4.86-1.91,2.99-3.82,4.39-5.72,4.39-.36,0-1.12-.04-1.55-.4-.76-.65-.14-1.91.83-1.48.11.04.58.18.9.18Z" style="fill: #fff;"/>
      <path d="M82.15,30.28c-2.92,0-4.95-2.01-4.95-4.88,0-1.48.46-2.84.86-4.04.14-.42.28-.83.4-1.25l3.67-13.45c.06-.23.11-.51.16-.79.08-.43.17-.91.32-1.43.41-1.41,1.57-2.31,2.95-2.31.95,0,1.86.45,2.43,1.2.56.74.74,1.7.48,2.63-.13.43-.25.76-.37,1.08-.14.37-.27.73-.38,1.14l-.11.41c.22-.01.42-.04.59-.06.19-.03.37-.05.55-.05,1.61,0,2.87,1.28,2.87,2.91,0,1.66-1.26,2.95-2.87,2.96-.13,0-.27,0-.42-.03-.24-.03-.46-.04-.68-.04-.29,0-.58.03-1.01.1-.23.03-.39.04-.54.04-.03,0-.06,0-.09,0l-2.1,7.62c-.2.69-.38,1.36-.52,1.96.54-.4,1.27-1.08,2.19-2.23.66-.83,1.54-1.29,2.47-1.29,1.04,0,1.97.58,2.43,1.52.49,1,.35,2.19-.35,3.11-3.19,4.27-6.09,5.17-7.96,5.17Z" style="fill: #998675;"/>
      <path d="M84.06,7.18c.18-.72.25-1.44.47-2.2.43-1.48,2.38-.86,2.02.43-.25.79-.54,1.44-.76,2.23l-3.71,13.46c-.47,1.66-.94,3.2-.94,4.43,0,.65.4,1.04,1.01,1.04,1.33,0,2.99-1.12,4.97-3.56,1.01-1.26,2.12-.07,1.4.86-2.23,2.99-4.46,4.39-6.37,4.39-1.73,0-2.95-1.04-2.95-2.88,0-1.62.76-3.2,1.19-4.75l3.67-13.46ZM88.52,10.5c1.48-.25,1.4,2.02.07,1.84-.9-.11-1.48-.07-2.3.07-1.48.22-1.4-1.94,0-1.84.65.07,1.58.04,2.23-.07Z" style="fill: #fff;"/>
      <path d="M96.51,30.28c-2.85,0-4.77-1.93-4.77-4.81,0-2.14.77-3.88,1.52-5.57.6-1.36,1.17-2.65,1.3-4.1-.99,3.24-2.31,6.3-4.41,9.24-.59.83-1.49,1.31-2.47,1.31-1.04,0-1.99-.56-2.46-1.46-.49-.93-.4-2.05.24-3,2.14-3.14,3.81-7.57,5.1-13.56.06-.27.08-.48.11-.76.03-.36.07-.81.19-1.33.31-1.5,1.54-2.55,3.03-2.55.87,0,1.7.38,2.25,1.03.57.67.8,1.54.65,2.45-.09.73-.35,1.49-.53,2.05-.04.13-.09.26-.12.36,0,.03-.01.06-.02.09.02,0,.04.02.06.02,3.47,1.33,4.19,3.63,4.19,5.32,0,2.47-.9,4.75-1.7,6.77-.3.75-.58,1.47-.79,2.13.52-.41,1.2-1.08,2.06-2.15.67-.84,1.55-1.3,2.47-1.3,1.02,0,1.94.57,2.4,1.49.5.98.39,2.17-.29,3.1-3.22,4.31-6.14,5.21-8.02,5.21Z" style="fill: #998675;"/>
      <path d="M92.81,6.72c.32-1.55,2.23-1.19,2.02.14-.11.83-.47,1.73-.61,2.23-1.33,5.94-2.63,10.51-5.69,14.79-.72,1.01-2.16.25-1.4-.86,2.63-3.85,4.25-8.93,5.4-14.25.18-.72.11-1.3.29-2.05ZM101.52,23.02c1.01-1.26,2.09-.07,1.4.86-2.23,2.99-4.46,4.39-6.41,4.39-1.66,0-2.77-.97-2.77-2.81,0-3.56,2.84-6.16,2.84-10.26,0-.54-.29-1.48-1.76-1.94-1.12-.36-.47-2.12.65-1.69,2.16.83,2.92,2.05,2.92,3.46,0,3.89-2.81,7.63-2.81,10.51,0,.76.4,1.04,1.01,1.04,1.33,0,2.95-1.08,4.93-3.56Z" style="fill: #fff;"/>
      <path d="M108.99,30c-.13,0-.27,0-.4,0-3.9-.21-6.7-3.78-6.51-8.31.21-5.99,3.94-12.36,10.42-12.36.11,0,.32,0,.32,0,.88,0,1.89.3,2.7.82,1.14.74,1.72,1.92,1.57,3.09.55.35.97.9,1.19,1.57.14.42.22.85.27,1.28.24-.13.5-.38.89-.85.51-.63,1.27-1,2.08-1,1.04,0,2.02.61,2.5,1.56.51,1,.4,2.18-.3,3.14-1.58,2.06-3.47,3.07-5.81,3.13h-.07c-1.28,4.06-4.19,7.93-8.86,7.93ZM112.32,15.09c-2.6.18-4.48,3.62-4.56,6.72-.05,1.55.7,2.54,1.04,2.56.07,0,.13,0,.18,0,2.32,0,3.77-4.02,3.88-6.8.02-.27-.06-.58-.14-.9l-.06-.26c-.08-.37-.09-.73-.05-1.07-.1-.08-.21-.16-.3-.25Z" style="fill: #998675;"/>
      <path d="M116.6,17.73c-.14,4.21-2.63,10.51-7.92,10.26-2.7-.14-4.75-2.74-4.61-6.23.18-5.04,3.28-10.62,8.67-10.44.54,0,1.19.18,1.69.5,1.55,1.01.07,2.63-.76,1.8-.25-.29-.72-.54-1.01-.54-4.14-.11-6.8,4.54-6.91,8.67-.07,2.41,1.22,4.5,2.92,4.61,4.14.29,6.05-5.18,6.19-8.71.04-.65-.14-1.22-.25-1.69-.25-1.19,1.4-1.66,1.76-.54.22.65.25,1.4.22,2.3ZM120.99,16.51c.61-.76,1.87.22,1.12,1.26-1.44,1.87-2.92,2.27-4.25,2.3-1.15.04-1.37-1.84-.18-1.84,1.12,0,1.98-.11,3.31-1.73Z" style="fill: #fff;"/>
      <path d="M151.45,30.28c-2.88,0-4.81-1.93-4.81-4.81,0-2.05,1.11-5.36,2.41-9.2,1.1-3.28,2.35-6.98,2.45-8.86-.22.11-.45.27-.65.47-.52.54-1.21.87-1.95.9-.5,2.96-1.94,7.44-3.67,12.82l-1.02,3.18c-.07.23-.12.52-.18.85-.07.41-.15.82-.27,1.27-.43,1.43-1.59,2.32-2.97,2.32-.95,0-1.86-.45-2.43-1.19-.56-.74-.73-1.69-.48-2.62.15-.48.28-.86.42-1.24.12-.33.24-.66.34-1.01.68-2.21,1.35-4.24,1.97-6.11,1.37-4.18,2.57-7.82,2.67-9.63-.22.11-.45.27-.65.47-.56.56-1.27.87-2.02.87-.09,0-.19,0-.28-.01-.03.09-.06.18-.09.27-.14.4-.27.79-.38,1.18l-4.21,14.55c-.08.28-.13.57-.19.9-.07.41-.15.82-.27,1.27-.43,1.43-1.58,2.32-2.96,2.32-.95,0-1.86-.45-2.43-1.19-.56-.74-.73-1.69-.48-2.62.15-.48.28-.86.42-1.24.12-.33.24-.66.34-1.01l4.25-14.55s.25-.88.31-1.08c-.06.11-.45.84-.45.84-.59,1.07-1.58,1.7-2.67,1.7-.98,0-1.91-.53-2.42-1.39-.54-.92-.55-2.06,0-3.05,1.9-3.66,4.36-5.61,7.08-5.61,1.95,0,3.53.95,4.35,2.44,1.18-.6,2.53-.92,3.57-.92,1.53,0,2.83.63,3.73,1.68,1.31-.99,3.07-1.68,4.48-1.68,2.89,0,4.99,2.25,4.99,5.35,0,2.4-1.36,6.67-2.8,11.18-.64,2-1.38,4.33-1.78,5.92.57-.43,1.3-1.12,2.17-2.2.66-.83,1.54-1.29,2.46-1.29,1.02,0,1.94.57,2.41,1.49.5.98.39,2.17-.29,3.1-3.22,4.31-6.14,5.21-8.02,5.21Z" style="fill: #998675;"/>
      <path d="M136.19,2c1.69,0,2.95,1.04,2.95,2.88,0,1.66-.76,3.24-1.19,4.75l-4.21,14.54c-.22.72-.25,1.4-.47,2.2-.43,1.44-2.38.86-2.02-.43.25-.83.54-1.48.76-2.23l4.25-14.54c.47-1.66.94-3.17.94-4.39,0-.65-.43-1.08-1.01-1.08-1.98,0-2.92,2.2-3.74,3.71-.76,1.37-2.23.36-1.58-.83.97-1.87,2.81-4.57,5.33-4.57ZM143.82,5.24c-.94,0-1.94.58-2.59,1.22-.83.83-1.87-.36-1.12-1.22.83-1.01,2.7-1.73,4-1.73,2.05,0,2.99,1.66,2.99,3.35,0,2.77-2.3,9.5-4.79,17.31-.22.72-.25,1.4-.47,2.2-.43,1.44-2.38.86-2.02-.43.25-.83.54-1.48.76-2.23,2.38-7.67,4.72-13.68,4.72-16.52,0-1.08-.25-1.94-1.48-1.94ZM150.44,25.54c0,.65.43,1.04,1.01,1.04,1.33,0,3.02-1.12,5-3.56,1.01-1.26,2.09-.07,1.4.86-2.23,2.99-4.46,4.39-6.41,4.39-1.69,0-2.81-.97-2.81-2.81,0-3.56,4.86-14.18,4.86-18.29,0-1.08-.25-1.94-1.48-1.94-.94,0-1.94.58-2.59,1.22-.79.83-1.84-.14-1.08-1.04.83-.97,2.66-1.91,3.96-1.91,2.05,0,2.99,1.66,2.99,3.35,0,3.89-4.86,15.8-4.86,18.68Z" style="fill: #fff;"/>
      <path d="M161.64,30.28c-2.92,0-4.95-2.01-4.95-4.88,0-1.48.46-2.84.86-4.04.14-.42.28-.84.4-1.25l2.16-7.5c.08-.28.13-.57.19-.9.07-.41.15-.82.27-1.27.22-.72.62-1.3,1.14-1.71-.22-.57-.26-1.21-.11-1.84.08-.28.15-.53.23-.78.12-.38.27-.84.3-1.09.11-1.51,1.32-2.65,2.88-2.65,1.01,0,1.98.5,2.54,1.3.53.77.65,1.73.31,2.63-.26.71-.35,1.07-.43,1.66-.14.83-.54,1.52-1.1,1.98.26.61.3,1.31.11,1.99-.14.54-.33,1.01-.5,1.43-.11.27-.22.53-.3.82l-2.27,7.86c-.19.69-.38,1.35-.52,1.95.54-.4,1.27-1.08,2.19-2.23.66-.83,1.54-1.29,2.47-1.29,1.04,0,1.97.58,2.43,1.52.49,1,.35,2.19-.35,3.11-3.19,4.27-6.09,5.17-7.96,5.17Z" style="fill: #998675;"/>
      <path d="M162.03,13.16c.22-.72.25-1.4.47-2.2.43-1.44,2.38-.86,2.02.43-.22.83-.58,1.48-.79,2.23l-2.16,7.49c-.47,1.66-.94,3.2-.94,4.43,0,.65.4,1.04,1.01,1.04,1.33,0,2.99-1.12,4.97-3.56,1.01-1.26,2.12-.07,1.4.86-2.23,2.99-4.46,4.39-6.37,4.39-1.73,0-2.95-1.04-2.95-2.88,0-1.62.76-3.2,1.19-4.75l2.16-7.49ZM164.12,5.24c.11-1.48,2.34-.9,1.87.36-.29.79-.43,1.3-.54,2.09-.25,1.48-2.23,1.01-1.91-.32.18-.65.5-1.48.58-2.12Z" style="fill: #fff;"/>
      <path d="M176.07,30.28c-3.68,0-5.71-2.44-6.35-5.33-.09.12-.15.19-.18.21-.64.75-1.52,1.17-2.42,1.17-1.06,0-2.01-.57-2.47-1.48-.48-.94-.35-2.07.34-3.01.24-.32.53-.7.85-1.12.79-1.03,2.13-2.77,3.03-4.3-.88-.04-1.69-.48-2.19-1.18-.51-.7-.64-1.59-.36-2.43.77-2.42,2.81-4.07,5.07-4.07,1.58,0,2.53.66,3.05,1.22.37.4.62.85.8,1.32.2-.27.42-.56.7-.86.64-.64,1.4-.96,2.2-.96,1.23,0,2.37.77,2.85,1.92.45,1.09.21,2.28-.63,3.12-.31.31-.62.55-.89.76-.27.21-.49.38-.64.57l-1.6,1.89c-.96,1.11-1.97,3.06-1.97,5.22,0,.07,0,1.64.81,1.64.12,0,1.26-.08,3.44-2.81.67-.84,1.55-1.3,2.47-1.3,1.02,0,1.94.57,2.41,1.49.5.98.39,2.17-.29,3.1-3.22,4.31-6.14,5.21-8.02,5.21Z" style="fill: #998675;"/>
      <path d="M171.79,14.49c.14-1.22-.04-1.94-.68-1.94s-.94.54-1.48,1.55c-.4.68-1.69.22-1.4-.65.54-1.69,1.84-2.7,3.17-2.7,2.09,0,2.3,1.73,2.16,3.64-.18,2.41-3.78,7.38-5.54,9.5-.83.97-2.2.22-1.4-.86,1.4-1.91,4.9-6.05,5.18-8.53ZM176.15,13.37c.43-.47.76-1.04,1.26-1.58.97-.97,2.41.43,1.55,1.3-.54.54-1.15.86-1.66,1.48l-1.58,1.87c-1.15,1.33-2.45,3.71-2.45,6.52,0,1.76.83,3.64,2.81,3.64,1.33,0,3.02-1.08,5-3.56,1.01-1.26,2.09-.07,1.4.86-2.23,2.99-4.46,4.39-6.41,4.39-3.42,0-4.57-2.92-4.57-5.4,0-3.1,1.66-6.23,3.38-8.13l1.26-1.37Z" style="fill: #fff;"/>
      <path d="M189.54,30.1c-3.66,0-7.94-2.09-7.94-7.98s4.44-12.83,10.82-12.83c3.18,0,4.84,2.62,4.84,5.2,0,4.5-4.63,7.53-8.99,7.58-.2.04-.46.08-.79.08-.04,0-.08,0-.12,0,0,1.18.27,2.26,2.1,2.26,1.01,0,3.17-.56,4.85-2.64.66-.83,1.54-1.29,2.47-1.29,1.04,0,1.97.58,2.43,1.52.49,1,.35,2.19-.35,3.11-2.79,3.68-6.65,4.99-9.32,4.99ZM191.08,15.36c-.34.16-.67.38-.98.66.39-.16.74-.38.98-.66Z" style="fill: #998675;"/>
      <path d="M187.05,20.11c-1.19-.22-.86-1.84.32-1.84.32,0,.58.11.86.11,2.41,0,5.22-1.33,5.22-3.96,0-.68-.36-1.37-1.12-1.37-3.85,0-6.98,4.86-6.98,9.07,0,3.82,2.81,4.28,4.1,4.28,1.76,0,4.43-.94,6.41-3.38,1.01-1.26,2.12-.07,1.4.86-2.27,2.99-5.47,4.21-7.74,4.21-2.81,0-5.94-1.44-5.94-5.98,0-5.04,3.71-10.83,8.82-10.83,2.38,0,2.84,2.2,2.84,3.2,0,3.42-3.89,5.58-7.09,5.58-.25,0-.5.14-1.12.04Z" style="fill: #fff;"/>
      <path d="M205.27,30.28c-2.85,0-4.77-1.93-4.77-4.81,0-2.14.77-3.88,1.52-5.57.6-1.36,1.17-2.65,1.3-4.1-.99,3.24-2.31,6.3-4.41,9.24-.59.83-1.49,1.31-2.47,1.31-1.04,0-1.99-.56-2.46-1.46-.49-.93-.4-2.05.24-3,2.14-3.14,3.81-7.57,5.1-13.56.06-.27.08-.48.11-.76.03-.36.07-.81.19-1.33.31-1.5,1.54-2.55,3.03-2.55.87,0,1.7.38,2.25,1.03.57.67.8,1.54.65,2.45-.09.73-.35,1.49-.53,2.05-.04.13-.09.26-.12.36,0,.03-.01.06-.02.09.02,0,.04.02.06.02,3.47,1.33,4.19,3.63,4.19,5.32,0,2.47-.9,4.75-1.7,6.77-.3.75-.58,1.47-.79,2.13.52-.41,1.2-1.08,2.06-2.15.67-.84,1.55-1.3,2.47-1.3,1.02,0,1.94.57,2.41,1.49.5.98.39,2.17-.29,3.1-3.22,4.31-6.14,5.21-8.02,5.21Z" style="fill: #998675;"/>
      <path d="M201.56,6.72c.32-1.55,2.23-1.19,2.02.14-.11.83-.47,1.73-.61,2.23-1.33,5.94-2.63,10.51-5.69,14.79-.72,1.01-2.16.25-1.4-.86,2.63-3.85,4.25-8.93,5.4-14.25.18-.72.11-1.3.29-2.05ZM210.27,23.02c1.01-1.26,2.09-.07,1.4.86-2.23,2.99-4.46,4.39-6.41,4.39-1.66,0-2.77-.97-2.77-2.81,0-3.56,2.84-6.16,2.84-10.26,0-.54-.29-1.48-1.76-1.94-1.12-.36-.47-2.12.65-1.69,2.16.83,2.92,2.05,2.92,3.46,0,3.89-2.81,7.63-2.81,10.51,0,.76.4,1.04,1.01,1.04,1.33,0,2.95-1.08,4.93-3.56Z" style="fill: #fff;"/>
    </g>
  </g>
</svg>