<?xml version="1.0" encoding="UTF-8"?>
<svg id="Layer_2" data-name="Layer 2" xmlns="http://www.w3.org/2000/svg" viewBox="0 0 45.83 42.05">
  <g id="Layer_1-2" data-name="Layer 1">
    <path d="M45.83,0c-10.82,0-21.63,0-32.45,0,0,1.58,0,4.48,0,6.06,0,8.61-.01,17.21-.04,25.8-.93-.32-4.53-1.44-8.07.35-3.21,1.62-6.15,5.52-5.04,7.83,1.06,2.21,5.61,2.6,8.71,1.17,3.2-1.47,5.24-5.06,5.29-9.23.03-8.62.07-17.25.1-25.87h30.5c0,8.58,0,17.17,0,25.75-.93-.32-4.54-1.46-8.1.35-3.21,1.62-6.15,5.52-5.04,7.83,1.06,2.21,5.61,2.6,8.71,1.17,3.2-1.47,5.24-5.06,5.29-9.23.03-8.62.07-17.25.1-25.87,0-2.04.02-4.07.03-6.11Z"/>
  </g>
</svg>