<?xml version="1.0" encoding="UTF-8"?>
<svg id="Layer_2" data-name="Layer 2" xmlns="http://www.w3.org/2000/svg" viewBox="0 0 525.44 181.98">
  <g id="Layer_5" data-name="Layer 5">
    <path d="M132.07,77.91l.5-10.09c-6.24-1.12-12.49-2.23-18.73-3.35l1.3-45.23c.13-6.37-4.8-7.52-4.8-7.52l-39.46.96c-.72.22-1.79.67-2.69,1.65-2.52,2.74-1.22,6.84-1.14,7.06,2.7,14.93,5.39,29.85,8.09,44.78-.1,3.6-.21,7.21-.31,10.81l-4.45,43.63,3.94.13,3.55-43.01,5.44,1.35-.25,50.63,1.78,1.14h2.29l1.52-51.31,20.44-.73.62,38.36,2.16,1.4,2.67-.64-.99-39.28,13.57-.48,1.89,48.48,2.54,1.53,2.8-.76-2.29-49.51Z" style="fill: #422a08;"/>
    <path d="M65.43,122.61l.5-10.09c-6.24-1.12-12.49-2.23-18.73-3.35l1.3-45.23c.13-6.37-4.8-7.52-4.8-7.52l-39.46.96c-.72.22-1.79.67-2.69,1.65-2.52,2.74-1.22,6.84-1.14,7.06,2.7,14.93,5.39,29.85,8.09,44.78-.1,3.6-.21,7.21-.31,10.81l-4.45,43.63,3.94.13,3.55-43.01,5.44,1.35-.25,50.63,1.78,1.14h2.29l1.52-51.31,20.44-.73.62,38.36,2.16,1.4,2.67-.64-.99-39.28,13.57-.48,1.89,48.48,2.54,1.53,2.8-.76-2.29-49.51Z" style="fill: #422a08;"/>
    <path d="M388.74,83.75l-.5-10.09c6.24-1.12,12.49-2.23,18.73-3.35l-1.3-45.23c-.13-6.37,4.8-7.52,4.8-7.52l39.46.96c.72.22,1.79.67,2.69,1.65,2.52,2.74,1.22,6.84,1.14,7.06-2.7,14.93-5.39,29.85-8.09,44.78.1,3.6.21,7.21.31,10.81l4.45,43.63-3.94.13-3.55-43.01-5.44,1.35.25,50.63-1.78,1.14h-2.29s-1.52-51.31-1.52-51.31l-20.44-.73-.62,38.36-2.16,1.4-2.67-.64.99-39.28-13.57-.48-1.89,48.48-2.54,1.53-2.8-.76,2.29-49.51Z" style="fill: #422a08;"/>
    <path d="M460.01,121.85l-.5-10.09c6.24-1.12,12.49-2.23,18.73-3.35l-1.3-45.23c-.13-6.37,4.8-7.52,4.8-7.52l39.46.96c.72.22,1.79.67,2.69,1.65,2.52,2.74,1.22,6.84,1.14,7.06-2.7,14.93-5.39,29.85-8.09,44.78.1,3.6.21,7.21.31,10.81l4.45,43.63-3.94.13-3.55-43.01-5.44,1.35.25,50.63-1.78,1.14h-2.29s-1.52-51.31-1.52-51.31l-20.44-.73-.62,38.36-2.16,1.4-2.67-.64.99-39.28-13.57-.48-1.89,48.48-2.54,1.53-2.8-.76,2.29-49.51Z" style="fill: #422a08;"/>
    <path d="M218.12,63.06l.47-9.4c-5.82-1.04-11.64-2.08-17.46-3.12l1.21-42.15c.12-5.94-4.47-7-4.47-7l-36.77.89c-.67.2-1.66.63-2.5,1.54-2.35,2.55-1.13,6.38-1.07,6.58,2.51,13.91,5.03,27.82,7.54,41.73-.1,3.36-.19,6.72-.29,10.07l-4.15,40.66,3.67.12,3.31-40.08,5.07,1.25-.23,47.18,1.66,1.07h2.13l1.41-47.81,19.05-.68.58,35.75,2.02,1.3,2.49-.59-.93-36.61,12.65-.45,1.76,45.18,2.37,1.42,2.61-.71-2.13-46.14Z" style="fill: #422a08;"/>
    <path d="M297.29,63.05l-.48-9.61c5.95-1.06,11.9-2.13,17.85-3.19l-1.23-43.09c-.12-6.07,4.57-7.16,4.57-7.16l37.6.91c.68.21,1.7.64,2.56,1.57,2.4,2.61,1.16,6.52,1.09,6.73-2.57,14.22-5.14,28.44-7.71,42.66.1,3.43.2,6.87.3,10.3l4.24,41.57-3.76.12-3.38-40.97-5.19,1.28.24,48.24-1.7,1.09h-2.18s-1.44-48.88-1.44-48.88l-19.48-.69-.59,36.55-2.06,1.33-2.55-.61.95-37.43-12.93-.46-1.8,46.19-2.42,1.45-2.67-.73,2.18-47.17Z" style="fill: #422a08;"/>
    <path d="M207.57,69.04l-6.44,44.34c-.25,1.71,1.08,3.25,2.81,3.25h110.37c1.83,0,3.19-1.72,2.76-3.5l-10.85-45.17c-.31-1.28-1.46-2.19-2.78-2.17l-93.07.83c-1.4.01-2.58,1.04-2.78,2.43Z"/>
    <path d="M227.05,112.83l1.98,3.74.44,48.66c1.42.05,3.43.29,5.64,1.16,4.3,1.69,7.23,4.93,6.94,5.37-.26.39-2.96-1.72-7.93-2.72-1.9-.38-3.52-.48-4.65-.5-1.59,2.05-2.34,3.88-2.72,5.15-.97,3.18-1.02,7.18-1.02,7.18h0c-2.2,2.64-5.28-.22-5.28-.22-.22-5.72,4.4-12.11,4.4-12.11-2.3-.27-5.72-.48-9.8,0-4.84.57-7.58,1.76-7.76,1.32-.24-.6,4.27-4.07,9.99-4.87,0,0,.88-.12,8.01-.19v-48.22l1.76-3.74Z"/>
    <path d="M289.63,112.51l-1.98,3.74-.44,48.66c-1.42.05-3.43.29-5.64,1.16-4.3,1.69-7.23,4.93-6.94,5.37.26.39,2.96-1.72,7.93-2.72,1.9-.38,3.52-.48,4.65-.5,1.59,2.05,2.34,3.88,2.72,5.15.97,3.18,1.02,7.18,1.02,7.18h0c2.2,2.64,5.28-.22,5.28-.22.22-5.72-4.4-12.11-4.4-12.11,2.3-.27,5.72-.48,9.8,0,4.84.57,7.58,1.76,7.76,1.32.24-.6-4.27-4.07-9.99-4.87,0,0-.88-.12-8.01-.19v-48.22s-1.76-3.74-1.76-3.74Z"/>
    <path d="M220.19,70.07l-4.62,39.3h35.17v-39.14s-30.96-.58-30.55-.17Z" style="fill: #fff;"/>
    <rect x="221.6" y="71.64" width="26.96" height=".41"/>
    <rect x="221.73" y="73.73" width="26.96" height=".41"/>
    <rect x="221.43" y="75.53" width="26.96" height=".41"/>
    <rect x="219.26" y="102.31" width="26.96" height=".41" transform="translate(.98 -2.19) rotate(.54)"/>
    <rect x="219.17" y="104.29" width="26.96" height=".41" transform="translate(.99 -2.18) rotate(.54)"/>
    <rect x="219.05" y="106.2" width="26.96" height=".41" transform="translate(1.01 -2.18) rotate(.54)"/>
    <rect x="220.84" y="85.86" width="26.96" height=".41"/>
    <rect x="220.65" y="88.12" width="26.96" height=".41"/>
    <rect x="220.62" y="90.47" width="26.96" height=".41"/>
    <rect x="219.98" y="94.12" width="26.96" height=".41"/>
    <rect x="219.79" y="96.21" width="26.96" height=".41"/>
    <rect x="219.81" y="98.56" width="26.96" height=".41"/>
    <rect x="221.39" y="78.51" width="26.96" height=".41"/>
    <rect x="221.53" y="80.6" width="26.96" height=".41"/>
    <rect x="221.22" y="82.41" width="26.96" height=".41"/>
    <path d="M295.19,69.64l4.62,39.3h-35.17v-39.14s30.96-.58,30.55-.17Z" style="fill: #fff;"/>
    <rect x="266.83" y="71.21" width="26.96" height=".41" transform="translate(560.62 142.83) rotate(-180)"/>
    <rect x="266.69" y="73.3" width="26.96" height=".41" transform="translate(560.35 147.02) rotate(-180)"/>
    <rect x="267" y="75.11" width="26.96" height=".41" transform="translate(560.97 150.62) rotate(-180)"/>
    <rect x="269.17" y="101.88" width="26.96" height=".41" transform="translate(566.24 201.51) rotate(179.46)"/>
    <rect x="269.26" y="103.86" width="26.96" height=".41" transform="translate(566.45 205.47) rotate(179.46)"/>
    <rect x="269.37" y="105.77" width="26.96" height=".41" transform="translate(566.69 209.29) rotate(179.46)"/>
    <rect x="267.58" y="85.43" width="26.96" height=".41" transform="translate(562.13 171.28) rotate(-180)"/>
    <rect x="267.45" y="87.53" width="26.96" height=".41" transform="translate(561.85 175.46) rotate(-180)"/>
    <rect x="267.76" y="89.33" width="26.96" height=".41" transform="translate(562.47 179.07) rotate(-180)"/>
    <rect x="268.44" y="93.69" width="26.96" height=".41" transform="translate(563.85 187.79) rotate(-180)"/>
    <rect x="268.31" y="95.78" width="26.96" height=".41" transform="translate(563.57 191.98) rotate(-180)"/>
    <rect x="268.62" y="97.58" width="26.96" height=".41" transform="translate(564.19 195.58) rotate(-180)"/>
    <rect x="267.04" y="78.08" width="26.96" height=".41" transform="translate(561.04 156.58) rotate(-180)"/>
    <rect x="266.9" y="80.18" width="26.96" height=".41" transform="translate(560.77 160.77) rotate(-180)"/>
    <rect x="267.21" y="81.98" width="26.96" height=".41" transform="translate(561.39 164.37) rotate(-180)"/>
  </g>
</svg>