<?xml version="1.0" encoding="UTF-8"?>
<svg id="Layer_2" data-name="Layer 2" xmlns="http://www.w3.org/2000/svg" viewBox="0 0 436.36 150">
  <g id="Piano">
    <g>
      <path d="M15.33,0h405.71c8.46,0,15.33,6.87,15.33,15.33v123.63c0,6.09-4.95,11.04-11.04,11.04H11.04c-6.09,0-11.04-4.95-11.04-11.04V15.33C0,6.87,6.87,0,15.33,0Z"/>
      <g>
        <rect x="17.12" y="27.49" width="26.84" height="118.53" style="fill: #fff;"/>
        <rect x="45.93" y="27.49" width="26.84" height="118.53" style="fill: #fff;"/>
        <rect x="74.73" y="27.49" width="26.84" height="118.53" style="fill: #fff;"/>
        <rect x="103.54" y="27.49" width="26.84" height="118.53" style="fill: #fff;"/>
        <rect x="132.35" y="27.49" width="26.84" height="118.53" style="fill: #fff;"/>
        <rect x="161.16" y="27.49" width="26.84" height="118.53" style="fill: #fff;"/>
        <rect x="189.96" y="27.49" width="26.84" height="118.53" style="fill: #fff;"/>
        <rect x="218.77" y="27.49" width="26.84" height="118.53" style="fill: #fff;"/>
        <rect x="247.58" y="27.49" width="26.84" height="118.53" style="fill: #fff;"/>
        <rect x="276.39" y="27.49" width="26.84" height="118.53" style="fill: #fff;"/>
        <rect x="305.2" y="27.49" width="26.84" height="118.53" style="fill: #fff;"/>
        <rect x="334" y="27.49" width="26.84" height="118.53" style="fill: #fff;"/>
        <rect x="362.81" y="27.49" width="26.84" height="118.53" style="fill: #fff;"/>
        <path d="M36.09,26.03h17.74v65.41c0,.95-.77,1.72-1.72,1.72h-14.3c-.95,0-1.72-.77-1.72-1.72V26.03h0Z"/>
        <path d="M94.17,26.03h17.74v65.41c0,.95-.77,1.72-1.72,1.72h-14.3c-.95,0-1.72-.77-1.72-1.72V26.03h0Z"/>
        <path d="M123.41,26.03h17.74v65.41c0,.95-.77,1.72-1.72,1.72h-14.3c-.95,0-1.72-.77-1.72-1.72V26.03h0Z"/>
        <path d="M180.91,26.03h17.74v65.41c0,.95-.77,1.72-1.72,1.72h-14.3c-.95,0-1.72-.77-1.72-1.72V26.03h0Z"/>
        <path d="M209.72,26.03h17.74v65.41c0,.95-.77,1.72-1.72,1.72h-14.3c-.95,0-1.72-.77-1.72-1.72V26.03h0Z"/>
        <path d="M238.53,26.03h17.74v65.41c0,.95-.77,1.72-1.72,1.72h-14.3c-.95,0-1.72-.77-1.72-1.72V26.03h0Z"/>
        <path d="M295.35,26.03h17.74v65.41c0,.95-.77,1.72-1.72,1.72h-14.3c-.95,0-1.72-.77-1.72-1.72V26.03h0Z"/>
        <path d="M352.96,26.03h17.74v65.41c0,.95-.77,1.72-1.72,1.72h-14.3c-.95,0-1.72-.77-1.72-1.72V26.03h0Z"/>
        <rect x="391.62" y="27.49" width="26.84" height="118.53" style="fill: #fff;"/>
        <path d="M381.92,26.03h17.74v65.41c0,.95-.77,1.72-1.72,1.72h-14.3c-.95,0-1.72-.77-1.72-1.72V26.03h0Z"/>
      </g>
    </g>
  </g>
</svg>