<?xml version="1.0" encoding="UTF-8"?>
<svg id="Layer_2" data-name="Layer 2" xmlns="http://www.w3.org/2000/svg" viewBox="0 0 134.31 425">
  <g id="String">
    <g>
      <path d="M127.35,325.15l.85-7.23-7.65.43c-39.1-39.53,1.28-67.16,1.28-67.16l3.83-1.28-3.83-7.65c1.32-10.53,2.64-21.06,3.97-31.6-.24-7.34-1.8-21.2-11.33-32.87-21.73-26.61-73.3-27.75-95.1-1.91-9.46,11.22-11.13,24.92-11.33,32.87,1.32,10.53,2.64,21.06,3.97,31.6l-3.83,7.65,3.83,1.28s40.38,27.63,1.28,67.16l-7.65-.43.85,7.23c-14.26,33.05-4.1,70.44,22.56,89.26,21.51,15.18,52.48,17.38,75.76,1.91,27.17-18.05,37.73-56.05,22.56-89.26Z" style="fill: #b27f00;"/>
      <path d="M68.91,422.43c-13.77,0-27.41-4.27-38.4-12.03-26.14-18.45-35.26-54.67-21.68-86.14l.27-.63-.57-4.87,5.75.32.82-.82c12.96-13.1,18.89-26.42,17.64-39.59-1.85-19.37-18.58-31.02-19.29-31.5l-.3-.2-1.35-.45,2.85-5.69-4.04-32.17c.25-8.73,2.33-21.14,10.72-31.09,9.41-11.16,25.86-17.82,44.01-17.82,19.44,0,37.06,7.36,47.13,19.7,6.6,8.08,10.31,18.84,10.75,31.13l-4.04,32.17,2.85,5.69-1.35.45-.3.2c-.71.49-17.43,12.14-19.29,31.5-1.26,13.17,4.67,26.49,17.64,39.59l.82.82,5.75-.32-.58,4.9.3.65c14.32,31.35,5.02,68.34-21.64,86.05-10.01,6.65-21.92,10.16-34.45,10.16h0Z" style="fill: #7f5511;"/>
      <path d="M68.91,419.85c-13.25,0-26.36-4.11-36.92-11.56-25.15-17.75-33.9-52.66-20.81-83.02l.55-1.27-.3-2.52,3.85.21,1.63-1.65c13.52-13.67,19.7-27.68,18.37-41.64-1.83-19.16-17.32-31.16-20.02-33.11l2.02-4.04-4.11-32.75c.27-8.26,2.25-19.98,10.11-29.3,8.93-10.58,24.65-16.9,42.04-16.9,18.68,0,35.55,7.01,45.14,18.75,6.2,7.6,9.71,17.75,10.16,29.38l-4.11,32.73,2.02,4.04c-2.69,1.95-18.19,13.95-20.02,33.11-1.33,13.96,4.84,27.97,18.37,41.64l1.63,1.65,3.85-.21-.3,2.58.6,1.31c13.8,30.21,4.89,65.82-20.73,82.83-9.58,6.36-21,9.73-33.03,9.73h0Z" style="fill: #b27f00;"/>
      <rect x="57.02" y="16.08" width="21.66" height="238.59"/>
      <path d="M57.26,383.81h21.25c-2.39,13.61-4.78,27.21-7.18,40.82-1.1.12-2.32.21-3.64.22-1.52.01-2.91-.07-4.16-.2-2.09-13.61-4.18-27.23-6.28-40.84Z"/>
      <path d="M81.33,306.73h-26.57c.46-2.36.92-4.72,1.38-7.08h23.8c.46,2.36.92,4.72,1.38,7.08Z"/>
      <rect x="74.55" y="33.63" width="1.13" height="354.3" style="fill: #fff;"/>
      <rect x="69.72" y="33.63" width="1.13" height="354.3" style="fill: #fff;"/>
      <rect x="64.88" y="33.81" width="1.13" height="354.3" style="fill: #fff;"/>
      <rect x="60.05" y="33.81" width="1.13" height="354.3" style="fill: #fff;"/>
      <path d="M79.31,34.5h-22.31c-4.52,0-8.19-3.78-8.19-8.44v-7.14c0-4.66,3.67-8.44,8.19-8.44C57.4,4.65,62.24.08,68.01,0c5.87-.08,10.89,4.54,11.3,10.47.55,0,3.45.06,5.79,2.47,1.48,1.53,2.4,3.64,2.4,5.97v7.14c0,4.66-3.67,8.44-8.19,8.44Z" style="fill: #b27f00;"/>
      <path d="M79.77,281.59c-.92-3.12.37-6.22,2.71-7.33,2.61-1.25,5.36.54,5.49.62,1.94,1.3,2.49,3.33,2.57,3.95.2,1.63-.17,3.27-.54,4.87-.6,2.62-1.2,5.24-1.8,7.86-.5,2.17-1,4.37-.97,6.6.03,2.23.64,4.53,2.12,6.2,1.48,1.67,3.93,2.56,6.03,1.82,2.1-.75,3.46-3.36,2.53-5.38-.44-.96-1.65-2.12-3.06-1.83-1.13.24-2.02,1.32-2.13,2.67" style="fill: none; stroke: #7f5511; stroke-miterlimit: 10;"/>
      <path d="M55.16,280.74c.92-3.12-.37-6.22-2.71-7.33-2.61-1.25-5.36.54-5.49.62-1.94,1.3-2.49,3.33-2.57,3.95-.2,1.63.17,3.27.54,4.87.6,2.62,1.2,5.24,1.8,7.86.5,2.17,1,4.37.97,6.6-.03,2.23-.64,4.53-2.12,6.2-1.48,1.67-3.93,2.56-6.03,1.82-2.1-.75-3.46-3.36-2.53-5.38.44-.96,1.65-2.12,3.06-1.83,1.13.24,2.02,1.32,2.13,2.67" style="fill: none; stroke: #7f5511; stroke-miterlimit: 10;"/>
    </g>
  </g>
</svg>